<svg width="19" height="19" viewBox="0 0 19 19" fill="none" xmlns="http://www.w3.org/2000/svg">
<path d="M11.8749 18.0111H7.12492C2.82617 18.0111 0.989502 16.1744 0.989502 11.8757V7.12565C0.989502 2.8269 2.82617 0.990234 7.12492 0.990234H11.8749C16.1737 0.990234 18.0103 2.8269 18.0103 7.12565V11.8757C18.0103 16.1744 16.1737 18.0111 11.8749 18.0111ZM7.12492 2.17773C3.47534 2.17773 2.177 3.47607 2.177 7.12565V11.8757C2.177 15.5252 3.47534 16.8236 7.12492 16.8236H11.8749C15.5245 16.8236 16.8228 15.5252 16.8228 11.8757V7.12565C16.8228 3.47607 15.5245 2.17773 11.8749 2.17773H7.12492Z" fill="#F2994A"/>
<path d="M8.37589 12.3344C8.21756 12.3344 8.06714 12.2711 7.95631 12.1603L5.71589 9.91984C5.48631 9.69026 5.48631 9.31026 5.71589 9.08068C5.94547 8.85109 6.32547 8.85109 6.55506 9.08068L8.37589 10.9015L12.4451 6.83234C12.6746 6.60276 13.0546 6.60276 13.2842 6.83234C13.5138 7.06193 13.5138 7.44193 13.2842 7.67151L8.79547 12.1603C8.68464 12.2711 8.53422 12.3344 8.37589 12.3344Z" fill="#F2994A"/>
</svg>
