<svg width="19" height="19" viewBox="0 0 19 19" fill="none" xmlns="http://www.w3.org/2000/svg">
<path d="M16.6249 5.32812C16.6091 5.32812 16.5853 5.32812 16.5616 5.32812C12.3737 4.90854 8.19365 4.75021 4.05324 5.16979L2.43824 5.32812C2.10574 5.35979 1.81282 5.12229 1.78115 4.78979C1.74949 4.45729 1.98699 4.17229 2.31157 4.14062L3.92657 3.98229C8.13824 3.55479 12.4053 3.72104 16.6803 4.14062C17.0049 4.17229 17.2424 4.46521 17.2107 4.78979C17.187 5.09854 16.9257 5.32812 16.6249 5.32812Z" fill="#EB5757"/>
<path d="M6.7291 4.52898C6.69744 4.52898 6.66577 4.52898 6.62619 4.52107C6.30952 4.46565 6.08785 4.1569 6.14327 3.84023L6.31744 2.80315C6.4441 2.04315 6.61827 0.990234 8.46285 0.990234H10.537C12.3895 0.990234 12.5637 2.08273 12.6824 2.81107L12.8566 3.84023C12.912 4.16482 12.6904 4.47357 12.3737 4.52107C12.0491 4.57648 11.7404 4.35482 11.6929 4.03815L11.5187 3.00898C11.4079 2.32023 11.3841 2.18565 10.5449 2.18565H8.47077C7.6316 2.18565 7.61577 2.29648 7.49702 3.00107L7.31494 4.03023C7.26744 4.32315 7.0141 4.52898 6.7291 4.52898Z" fill="#EB5757"/>
<path d="M12.0411 18.0097H6.95865C4.19573 18.0097 4.0849 16.4818 3.99782 15.2468L3.48323 7.27468C3.45948 6.9501 3.71282 6.6651 4.0374 6.64135C4.3699 6.62552 4.64698 6.87093 4.67073 7.19552L5.18532 15.1676C5.2724 16.3709 5.30407 16.8222 6.95865 16.8222H12.0411C13.7036 16.8222 13.7353 16.3709 13.8145 15.1676L14.3291 7.19552C14.3528 6.87093 14.6378 6.62552 14.9624 6.64135C15.287 6.6651 15.5403 6.94218 15.5166 7.27468L15.002 15.2468C14.9149 16.4818 14.8041 18.0097 12.0411 18.0097Z" fill="#EB5757"/>
<path d="M10.8142 13.6562H8.17798C7.8534 13.6562 7.58423 13.3871 7.58423 13.0625C7.58423 12.7379 7.8534 12.4688 8.17798 12.4688H10.8142C11.1388 12.4688 11.408 12.7379 11.408 13.0625C11.408 13.3871 11.1388 13.6562 10.8142 13.6562Z" fill="#EB5757"/>
<path d="M11.4791 10.4902H7.52075C7.19617 10.4902 6.927 10.2211 6.927 9.89648C6.927 9.5719 7.19617 9.30273 7.52075 9.30273H11.4791C11.8037 9.30273 12.0728 9.5719 12.0728 9.89648C12.0728 10.2211 11.8037 10.4902 11.4791 10.4902Z" fill="#EB5757"/>
</svg>
