<svg width="19" height="19" viewBox="0 0 19 19" fill="none" xmlns="http://www.w3.org/2000/svg">
<path d="M4.38582 15.4531C3.90291 15.4531 3.45166 15.2869 3.12707 14.9781C2.71541 14.5902 2.51749 14.0044 2.58874 13.3711L2.88166 10.8061C2.93707 10.3231 3.22999 9.6819 3.57041 9.33356L10.07 2.45398C11.6929 0.736065 13.3871 0.688565 15.105 2.31148C16.8229 3.9344 16.8704 5.62856 15.2475 7.34648L8.74791 14.2261C8.41541 14.5823 7.79791 14.9148 7.31499 14.994L4.76582 15.4294C4.63124 15.4373 4.51249 15.4531 4.38582 15.4531ZM12.6112 2.30357C12.0017 2.30357 11.4712 2.68357 10.9329 3.25357L4.43332 10.1411C4.27499 10.3073 4.09291 10.7031 4.06124 10.9327L3.76832 13.4977C3.73666 13.759 3.79999 13.9727 3.94249 14.1073C4.08499 14.2419 4.29874 14.2894 4.55999 14.2498L7.10916 13.8144C7.33874 13.7748 7.71874 13.569 7.87707 13.4027L14.3767 6.52315C15.3583 5.47815 15.7146 4.51232 14.2817 3.16648C13.6483 2.5569 13.1021 2.30357 12.6112 2.30357Z" fill="#333333"/>
<path d="M13.7275 8.66932C13.7117 8.66932 13.6879 8.66932 13.6721 8.66932C11.2021 8.42391 9.21502 6.54766 8.83502 4.09349C8.78752 3.76891 9.00919 3.46807 9.33377 3.41266C9.65835 3.36516 9.95919 3.58682 10.0146 3.91141C10.3154 5.82724 11.8671 7.29974 13.7988 7.48974C14.1234 7.52141 14.3609 7.81432 14.3292 8.13891C14.2896 8.43974 14.0284 8.66932 13.7275 8.66932Z" fill="#333333"/>
<path d="M16.625 18.0098H2.375C2.05042 18.0098 1.78125 17.7406 1.78125 17.416C1.78125 17.0914 2.05042 16.8223 2.375 16.8223H16.625C16.9496 16.8223 17.2188 17.0914 17.2188 17.416C17.2188 17.7406 16.9496 18.0098 16.625 18.0098Z" fill="#333333"/>
</svg>
